<?xml version="1.0" encoding="UTF-8"?>
<!DOCTYPE svg PUBLIC "-//W3C//DTD SVG 1.1//EN" "http://www.w3.org/Graphics/SVG/1.1/DTD/svg11.dtd">
<svg xmlns="http://www.w3.org/2000/svg" version="1.1" width="16px" height="16px" style="shape-rendering:geometricPrecision; text-rendering:geometricPrecision; image-rendering:optimizeQuality; fill-rule:evenodd; clip-rule:evenodd" xmlns:xlink="http://www.w3.org/1999/xlink">
<g><path style="opacity:1" fill="#ef4760" d="M 232.5,-0.5 C 247.833,-0.5 263.167,-0.5 278.5,-0.5C 316.722,3.35166 352.388,15.0183 385.5,34.5C 411.993,128.256 396.493,214.256 339,292.5C 320.491,314.849 299.657,334.516 276.5,351.5C 249.387,339.809 229.22,347.142 216,373.5C 215.007,376.474 214.174,379.474 213.5,382.5C 154.62,402.345 95.2869,403.679 35.5,386.5C 20.9751,363.426 10.8084,338.426 5,311.5C 2.74641,300.424 0.913081,289.424 -0.5,278.5C -0.5,263.167 -0.5,247.833 -0.5,232.5C 10.3875,142.857 54.7208,75.3573 132.5,30C 163.971,13.3053 197.304,3.1386 232.5,-0.5 Z"/></g>
<g><path style="opacity:0.998" fill="#e03757" d="M 385.5,34.5 C 459.283,80.0211 501.283,146.021 511.5,232.5C 511.5,247.833 511.5,263.167 511.5,278.5C 500.612,368.144 456.279,435.644 378.5,481C 347.029,497.695 313.696,507.861 278.5,511.5C 263.167,511.5 247.833,511.5 232.5,511.5C 155.36,502.688 93.5271,467.354 47,405.5C 42.6416,399.444 38.8082,393.11 35.5,386.5C 95.2869,403.679 154.62,402.345 213.5,382.5C 213.445,407.938 225.779,423.438 250.5,429C 274.012,429.829 289.179,418.996 296,396.5C 299.288,377.09 292.788,362.09 276.5,351.5C 299.657,334.516 320.491,314.849 339,292.5C 396.493,214.256 411.993,128.256 385.5,34.5 Z"/></g>
<g><path style="opacity:1" fill="#fffdfd" d="M 246.5,81.5 C 255.879,81.2244 265.212,81.7244 274.5,83C 285.842,87.009 293.009,94.8423 296,106.5C 298.283,167.857 297.949,229.191 295,290.5C 290.887,302.145 282.72,308.978 270.5,311C 260.833,311.667 251.167,311.667 241.5,311C 227.133,307.965 218.967,299.131 217,284.5C 216.333,225.5 216.333,166.5 217,107.5C 220.827,91.8302 230.661,83.1635 246.5,81.5 Z"/></g>
<g><path style="opacity:1" fill="#fefdfd" d="M 276.5,351.5 C 292.788,362.09 299.288,377.09 296,396.5C 289.179,418.996 274.012,429.829 250.5,429C 225.779,423.438 213.445,407.938 213.5,382.5C 214.174,379.474 215.007,376.474 216,373.5C 229.22,347.142 249.387,339.809 276.5,351.5 Z"/></g>
</svg>
