<?xml version="1.0" encoding="UTF-8"?>
<!DOCTYPE svg PUBLIC "-//W3C//DTD SVG 1.1//EN" "http://www.w3.org/Graphics/SVG/1.1/DTD/svg11.dtd">
<svg xmlns="http://www.w3.org/2000/svg" version="1.1" width="16px" height="512px" style="shape-rendering:geometricPrecision; text-rendering:geometricPrecision; image-rendering:optimizeQuality; fill-rule:evenodd; clip-rule:evenodd" xmlns:xlink="http://www.w3.org/1999/xlink">
<g><path style="opacity:0.892" fill="#000000" d="M 82.5,77.5 C 85.6492,77.2114 88.6492,77.7114 91.5,79C 101.333,88.8333 111.167,98.6667 121,108.5C 124.167,120 120,124.167 108.5,121C 98.6667,111.167 88.8333,101.333 79,91.5C 76.2672,85.7222 77.4339,81.0555 82.5,77.5 Z"/></g>
<g><path style="opacity:0.892" fill="#000000" d="M 421.5,77.5 C 432.039,76.9148 435.539,81.5815 432,91.5C 422.167,101.333 412.333,111.167 402.5,121C 391,124.167 386.833,120 390,108.5C 400.395,97.9373 410.895,87.6039 421.5,77.5 Z"/></g>
<g><path style="opacity:0.962" fill="#010101" d="M 236.5,79.5 C 312.569,75.1128 370.403,105.113 410,169.5C 433.373,213.915 438.04,260.249 424,308.5C 404.167,365.667 365.667,404.167 308.5,424C 235.797,443.202 173.63,425.702 122,371.5C 81.1787,321.4 69.5121,265.067 87,202.5C 112.649,132.011 162.482,91.0112 236.5,79.5 Z"/></g>
<g><path style="opacity:1" fill="#d3d2d5" d="M 238.5,95.5 C 307.826,92.0713 360.326,119.738 396,178.5C 420.64,226.495 421.974,275.161 400,324.5C 374.286,374.189 333.786,404.023 278.5,414C 211.802,420.793 159.302,396.959 121,342.5C 96.8499,303.409 89.8499,261.409 100,216.5C 116.397,159.103 152.897,120.937 209.5,102C 219.251,99.6045 228.917,97.4378 238.5,95.5 Z"/></g>
<g><path style="opacity:1" fill="#030302" d="M 243.5,111.5 C 309.352,109.99 357.185,138.323 387,196.5C 404.831,239.885 403.165,282.552 382,324.5C 346.547,382.137 295.047,406.303 227.5,397C 169.815,382.981 132.648,347.481 116,290.5C 103.573,231.448 120.073,182.281 165.5,143C 188.577,125.144 214.577,114.644 243.5,111.5 Z"/></g>
<g><path style="opacity:1" fill="#90cb03" d="M 240.5,127.5 C 294.729,124.531 336.563,145.531 366,190.5C 386.663,228.075 388.997,266.742 373,306.5C 345.816,361.019 301.65,386.519 240.5,383C 176.566,371.399 139.066,333.565 128,269.5C 124.385,223.645 139.885,185.811 174.5,156C 194.035,140.731 216.035,131.231 240.5,127.5 Z"/></g>
<g><path style="opacity:1" fill="#030300" d="M 306.5,199.5 C 309.187,199.336 311.854,199.503 314.5,200C 323,208.5 331.5,217 340,225.5C 341.967,228.998 341.633,232.332 339,235.5C 308.833,265.667 278.667,295.833 248.5,326C 245.332,328.633 241.998,328.967 238.5,327C 220.667,309.167 202.833,291.333 185,273.5C 183.627,271.305 183.294,268.971 184,266.5C 191.802,257.697 199.969,249.197 208.5,241C 211.58,238.184 214.913,237.851 218.5,240C 226.167,247.667 233.833,255.333 241.5,263C 242.167,263.667 242.833,263.667 243.5,263C 264.702,241.965 285.702,220.799 306.5,199.5 Z"/></g>
<g><path style="opacity:1" fill="#f8d442" d="M 309.5,218.5 C 313.737,221.228 317.571,224.561 321,228.5C 321.667,229.167 321.667,229.833 321,230.5C 294.986,256.68 268.82,282.68 242.5,308.5C 229.167,295.833 216.167,282.833 203.5,269.5C 206.833,265.5 210.5,261.833 214.5,258.5C 222.319,265.819 229.986,273.319 237.5,281C 240.366,282.457 243.366,282.79 246.5,282C 267.702,260.965 288.702,239.799 309.5,218.5 Z"/></g>
<g><path style="opacity:0.972" fill="#000000" d="M 11.5,247.5 C 27.5035,247.333 43.5035,247.5 59.5,248C 61.3333,248.5 62.5,249.667 63,251.5C 63.6667,254.167 63.6667,256.833 63,259.5C 62.5,261.333 61.3333,262.5 59.5,263C 43.5,263.667 27.5,263.667 11.5,263C 8.48396,261.471 7.15062,258.971 7.5,255.5C 7.2824,251.934 8.61574,249.268 11.5,247.5 Z"/></g>
<g><path style="opacity:0.972" fill="#000000" d="M 451.5,247.5 C 467.503,247.333 483.503,247.5 499.5,248C 501.333,248.5 502.5,249.667 503,251.5C 503.667,254.167 503.667,256.833 503,259.5C 502.5,261.333 501.333,262.5 499.5,263C 483.5,263.667 467.5,263.667 451.5,263C 448.484,261.471 447.151,258.971 447.5,255.5C 447.282,251.934 448.616,249.268 451.5,247.5 Z"/></g>
<g><path style="opacity:0.892" fill="#000000" d="M 110.5,388.5 C 121.039,387.915 124.539,392.581 121,402.5C 111.167,412.333 101.333,422.167 91.5,432C 80,435.167 75.8333,431 79,419.5C 89.3951,408.937 99.8951,398.604 110.5,388.5 Z"/></g>
<g><path style="opacity:0.892" fill="#000000" d="M 393.5,388.5 C 396.649,388.211 399.649,388.711 402.5,390C 412.333,399.833 422.167,409.667 432,419.5C 435.167,431 431,435.167 419.5,432C 409.667,422.167 399.833,412.333 390,402.5C 387.267,396.722 388.434,392.056 393.5,388.5 Z"/></g>
</svg>
